<?xml version="1.0" encoding="utf-8"?>
<!-- Generator: Adobe Illustrator 17.0.0, SVG Export Plug-In . SVG Version: 6.00 Build 0)  -->
<!DOCTYPE svg PUBLIC "-//W3C//DTD SVG 1.1//EN" "http://www.w3.org/Graphics/SVG/1.1/DTD/svg11.dtd">
<svg version="1.1" id="Layer_1" xmlns="http://www.w3.org/2000/svg" xmlns:xlink="http://www.w3.org/1999/xlink" x="0px" y="0px"
	 width="1440px" height="800px" viewBox="0 0 1440 800" enable-background="new 0 0 1440 800" xml:space="preserve">
<g>
	<path d="M905.659,376.479l44.904,5.646l35.438,70.317l8.152-64.836l46.218,5.811l-19.278,153.33l-42.494-5.343l-37.216-73.878
		l-8.565,68.122l-46.437-5.839L905.659,376.479z"/>
	<path d="M1175.14,640.333h-47.686v-55.854l-34.439,55.854h-53.426l43.491-66.23l-44.595-88.307h55.192l23.622,49.011l10.156-14.35
		v-34.66h47.686V640.333z"/>
	<polygon points="1074.877,294.779 1051.107,300.572 1026.387,306.595 1037.663,352.871 1063.471,346.582 1089.06,451.593 
		1132.666,440.967 1095.801,289.681 	"/>
	<polyline points="477.662,451.551 574.831,525.831 435.72,490.496 	"/>
	<ellipse transform="matrix(0.4309 0.9024 -0.9024 0.4309 598.92 -140.825)" cx="411.11" cy="404.426" rx="146.223" ry="146.215"/>
	<path fill="#FFFFFF" d="M405.133,436.713c18.883-1.63,32.87-18.259,31.24-37.142c-1.63-18.883-18.259-32.87-37.142-31.24
		c-18.883,1.63-32.87,18.258-31.24,37.142C369.621,424.356,386.25,438.342,405.133,436.713z M400.83,386.853
		c8.654-0.747,16.275,5.663,17.022,14.317c0.747,8.654-5.663,16.275-14.317,17.022c-8.654,0.747-16.275-5.663-17.022-14.317
		C385.766,395.22,392.176,387.599,400.83,386.853z"/>
	<g>
		<path fill="#FFFFFF" d="M337.07,435.378l-31.408,2.711l-3.956-12.408l30.089-42.8l18.013-1.555l3.38,39.167l8.221-0.71
			l1.156,13.395l-8.221,0.71l1.084,12.563l-17.274,1.491L337.07,435.378z M335.922,422.075l-1.61-18.66l-13.909,19.999
			L335.922,422.075z"/>
	</g>
	<g>
		<path fill="#FFFFFF" d="M480.276,406.934l-31.425,2.502l-3.873-12.434l30.372-42.6l18.023-1.435l3.12,39.189l8.226-0.655
			l1.067,13.402l-8.226,0.655l1.001,12.57l-17.284,1.376L480.276,406.934z M479.217,393.624l-1.486-18.67l-14.041,19.906
			L479.217,393.624z"/>
	</g>
	
		<rect x="874.351" y="156.698" transform="matrix(0.6731 0.7395 -0.7395 0.6731 434.4204 -590.649)" width="21.983" height="78.773"/>
	
		<rect x="874.351" y="156.698" transform="matrix(-0.7395 0.6731 -0.6731 -0.7395 1672.0763 -254.8375)" width="21.983" height="78.773"/>
	<path d="M697.601,357.548v-95.749h50.166v96.207c0,16.035,8.016,23.136,19.242,23.136c11.224,0,19.24-6.643,19.24-22.448v-96.895
		h49.937v94.833c0,49.021-28.175,68.72-69.636,68.72C725.317,425.352,697.601,405.423,697.601,357.548z"/>
	<circle cx="619.247" cy="201.971" r="25.076"/>
	<path d="M750.584,459.842c-47.051,0-85.193,38.142-85.193,85.193s38.142,85.193,85.193,85.193
		c47.051,0,85.193-38.142,85.193-85.193S797.635,459.842,750.584,459.842z M750.584,582.945c-20.937,0-37.91-16.973-37.91-37.91
		c0-20.937,16.973-37.91,37.91-37.91s37.91,16.973,37.91,37.91C788.494,565.972,771.521,582.945,750.584,582.945z"/>
</g>
</svg>
