<?xml version="1.0" encoding="UTF-8"?>
<svg width="21px" height="21px" viewBox="0 0 21 21" version="1.1" xmlns="http://www.w3.org/2000/svg" xmlns:xlink="http://www.w3.org/1999/xlink">
    <!-- Generator: Sketch 56.3 (81716) - https://sketch.com -->
    <title>INSTAGRAM LOGO</title>
    <desc>Created with Sketch.</desc>
    <g id="DEFINITIVAS-MAINBOARD" stroke="none" stroke-width="1" fill="none" fill-rule="evenodd">
        <g id="PAGE-MODEL-dsef-:hover-Copy-4" transform="translate(-668.000000, -635.000000)" fill="#030303">
            <g id="Group-10" transform="translate(100.000000, 401.000000)">
                <g id="Group-12">
                    <g id="ICONS-SM-Copy-2" transform="translate(568.000000, 234.000000)">
                        <g id="ICONS-SM-Copy">
                            <g id="INSTAGRAM-LOGO">
                                <path d="M14.36875,0 L6.53125,0 C2.92469375,0 0,2.92469375 0,6.53125 L0,14.36875 C0,17.9753063 2.92469375,20.9 6.53125,20.9 L14.36875,20.9 C17.9753062,20.9 20.9,17.9753063 20.9,14.36875 L20.9,6.53125 C20.9,2.92469375 17.9753062,0 14.36875,0 L14.36875,0 Z M18.940625,14.36875 C18.940625,16.8898125 16.8898125,18.940625 14.36875,18.940625 L6.53125,18.940625 C4.0101875,18.940625 1.959375,16.8898125 1.959375,14.36875 L1.959375,6.53125 C1.959375,4.0101875 4.0101875,1.959375 6.53125,1.959375 L14.36875,1.959375 C16.8898125,1.959375 18.940625,4.0101875 18.940625,6.53125 L18.940625,14.36875 L18.940625,14.36875 Z" id="Shape"></path>
                                <path d="M10.3990244,5.1995122 C7.52759378,5.1995122 5.1995122,7.52759378 5.1995122,10.3990244 C5.1995122,13.270455 7.52759378,15.5985366 10.3990244,15.5985366 C13.270455,15.5985366 15.5985366,13.270455 15.5985366,10.3990244 C15.5985366,7.52759378 13.270455,5.1995122 10.3990244,5.1995122 L10.3990244,5.1995122 Z M10.3990244,13.6487195 C8.60779244,13.6487195 7.14932927,12.1902563 7.14932927,10.3990244 C7.14932927,8.60649256 8.60779244,7.14932927 10.3990244,7.14932927 C12.1902563,7.14932927 13.6487195,8.60649256 13.6487195,10.3990244 C13.6487195,12.1902563 12.1902563,13.6487195 10.3990244,13.6487195 L10.3990244,13.6487195 Z" id="Shape"></path>
                                <circle id="Oval" cx="16.0063415" cy="4.79170732" r="1"></circle>
                            </g>
                        </g>
                    </g>
                </g>
            </g>
        </g>
    </g>
</svg>