<?xml version="1.0" encoding="UTF-8"?>
<svg width="19px" height="19px" viewBox="0 0 19 19" version="1.1" xmlns="http://www.w3.org/2000/svg" xmlns:xlink="http://www.w3.org/1999/xlink">
    <!-- Generator: Sketch 56.3 (81716) - https://sketch.com -->
    <title>INSTAGRAM LOGO</title>
    <desc>Created with Sketch.</desc>
    <g id="menu" stroke="none" stroke-width="1" fill="none" fill-rule="evenodd">
        <g id="Artboard" transform="translate(-589.000000, -550.000000)" fill="#FCFCFC">
            <g id="ICONS-SM-Copy" transform="translate(589.000000, 550.000000)">
                <g id="INSTAGRAM-LOGO">
                    <path d="M13.0625,0 L5.9375,0 C2.6588125,0 0,2.6588125 0,5.9375 L0,13.0625 C0,16.3411875 2.6588125,19 5.9375,19 L13.0625,19 C16.3411875,19 19,16.3411875 19,13.0625 L19,5.9375 C19,2.6588125 16.3411875,0 13.0625,0 L13.0625,0 Z M17.21875,13.0625 C17.21875,15.354375 15.354375,17.21875 13.0625,17.21875 L5.9375,17.21875 C3.645625,17.21875 1.78125,15.354375 1.78125,13.0625 L1.78125,5.9375 C1.78125,3.645625 3.645625,1.78125 5.9375,1.78125 L13.0625,1.78125 C15.354375,1.78125 17.21875,3.645625 17.21875,5.9375 L17.21875,13.0625 L17.21875,13.0625 Z" id="Shape"></path>
                    <path d="M9.45365854,4.72682927 C6.84326707,4.72682927 4.72682927,6.84326707 4.72682927,9.45365854 C4.72682927,12.06405 6.84326707,14.1804878 9.45365854,14.1804878 C12.06405,14.1804878 14.1804878,12.06405 14.1804878,9.45365854 C14.1804878,6.84326707 12.06405,4.72682927 9.45365854,4.72682927 L9.45365854,4.72682927 Z M9.45365854,12.4079268 C7.82526585,12.4079268 6.49939024,11.0820512 6.49939024,9.45365854 C6.49939024,7.82408415 7.82526585,6.49939024 9.45365854,6.49939024 C11.0820512,6.49939024 12.4079268,7.82408415 12.4079268,9.45365854 C12.4079268,11.0820512 11.0820512,12.4079268 9.45365854,12.4079268 L9.45365854,12.4079268 Z" id="Shape"></path>
                    <circle id="Oval" cx="14.5512195" cy="4.35609756" r="1"></circle>
                </g>
            </g>
        </g>
    </g>
</svg>