<?xml version="1.0" encoding="UTF-8"?>
<svg width="189px" height="43px" viewBox="0 0 189 43" version="1.1" xmlns="http://www.w3.org/2000/svg" xmlns:xlink="http://www.w3.org/1999/xlink">
    <!-- Generator: Sketch 56.3 (81716) - https://sketch.com -->
    <title>UnikoLogo</title>
    <desc>Created with Sketch.</desc>
    <g id="Page-1" stroke="none" stroke-width="1" fill="none" fill-rule="evenodd">
        <g id="Home" transform="translate(-40.000000, -30.000000)" fill="#030303" fill-rule="nonzero" stroke="#030303" stroke-width="1.14545455">
            <g id="UnikoLogo">
                <g transform="translate(40.000000, 30.000000)">
                    <path d="M34.2571091,1.99836 L22.9129855,1.99836 L22.9129855,25.6597855 C22.9129855,29.6819897 20.884379,31.8470727 17.5279745,31.8470727 C14.1881578,31.8470727 12.1427345,29.5781987 12.1427345,25.4879673 L12.1427345,1.99836 L0.741338182,1.99836 L0.741338182,25.3734218 C0.741338182,36.3642975 6.68527374,41.75892 17.4132,41.75892 C28.2770929,41.75892 34.2571091,36.3530772 34.2571091,25.1441018 L34.2571091,1.99836 Z" id="Path"></path>
                    <path d="M39.9353564,1.99836 L39.9353564,40.9568727 L50.9356145,40.9568727 L50.9356145,21.8330446 L63.7876139,40.9568727 L74.0240836,40.9568727 L74.0240836,1.99836 L63.0810982,1.99836 L63.0810982,20.2622468 L50.8021231,1.99836 L39.9353564,1.99836 Z" id="Path"></path>
                    <path d="M102.339262,1.99836 L102.339262,40.9566436 L113.569069,40.9566436 L113.569069,32.3524115 L116.871215,27.6865226 L123.267013,40.9566436 L136.299188,40.9566436 L124.996499,18.5754545 L135.882178,1.99836 L123.398572,1.99836 L113.56884,17.9405565 L113.56884,1.99836 L102.339262,1.99836 Z" id="Path"></path>
                    <path d="M79.1044036,1.90076727 L79.1044036,13.3553127 L85.2898582,13.3553127 L85.2898582,41.0753127 L96.5153127,41.0753127 L96.5153127,1.90076727 L79.1044036,1.90076727 Z" id="Path"></path>
                    <circle id="Oval" cx="182.623713" cy="35.4827455" r="5.69886545"></circle>
                    <path d="M154.980458,0.682461818 C143.528825,0.682461818 134.24544,9.96584672 134.24544,21.41748 C134.24544,32.8690677 143.528779,42.1522691 154.980458,42.1522691 C166.432057,42.1522691 175.715476,32.8689187 175.715476,21.41748 C175.715476,9.96592679 166.431942,0.682461818 154.980458,0.682461818 Z M154.980229,31.4718218 C149.427361,31.4718218 144.925887,26.9703485 144.925887,21.41748 C144.925887,15.8646115 149.427361,11.3631382 154.980229,11.3631382 C160.533098,11.3631382 165.034571,15.8646115 165.034571,21.41748 C165.034571,26.9703485 160.533098,31.4718218 154.980229,31.4718218 Z" id="Shape"></path>
                </g>
            </g>
        </g>
    </g>
</svg>