<?xml version="1.0" encoding="UTF-8"?>
<svg width="29px" height="20px" viewBox="0 0 29 20" version="1.1" xmlns="http://www.w3.org/2000/svg" xmlns:xlink="http://www.w3.org/1999/xlink">
    <!-- Generator: Sketch 56.3 (81716) - https://sketch.com -->
    <title>Shape</title>
    <desc>Created with Sketch.</desc>
    <g id="DEFINITIVAS-MAINBOARD" stroke="none" stroke-width="1" fill="none" fill-rule="evenodd">
        <g id="PAGE-MODEL-dsef-:hover-Copy-4" transform="translate(-749.000000, -634.000000)" stroke="#030303" stroke-width="2">
            <g id="Group-10" transform="translate(100.000000, 401.000000)">
                <g id="Group-12">
                    <g id="ICONS-SM-Copy-2" transform="translate(568.000000, 234.000000)">
                        <g id="ICONS-SM-Copy">
                            <path d="M106.800042,3.11571825 C106.027124,3.45463655 105.197795,3.68448705 104.326431,3.78710313 C105.216153,3.25986294 105.897213,2.42358605 106.220002,1.43015918 C105.385422,1.91841748 104.4642,2.27295569 103.48262,2.46514861 C102.696595,1.63535738 101.578549,1.11850783 100.338449,1.11850783 C97.9593368,1.11850783 96.0303189,3.02743175 96.0303189,5.38047073 C96.0303189,5.7141937 96.0683729,6.04014067 96.141873,6.35182597 C92.5620535,6.17389472 89.3877198,4.47665466 87.2631821,1.8976362 C86.891804,2.52616817 86.680534,3.25853865 86.680534,4.04031561 C86.680534,5.5194201 87.441648,6.82449831 88.596444,7.58804072 C87.890438,7.56467875 87.226432,7.37248583 86.6451222,7.05302452 L86.6451222,7.10626807 C86.6451222,9.17101767 88.1306001,10.8942343 90.1002798,11.2864301 C89.7394018,11.3825266 89.358862,11.4357701 88.9651799,11.4357701 C88.6869981,11.4357701 88.4179781,11.4085032 88.154208,11.35655 C88.7027138,13.0512094 90.2931919,14.2835531 92.1776019,14.3173397 C90.7039279,15.4601065 88.845768,16.1392674 86.8275343,16.1392674 C86.4797984,16.1392674 86.1372783,16.1184861 85.8000424,16.0808285 C87.7067563,17.2924249 89.9704022,17.9988528 92.4033179,17.9988528 C100.328017,17.9988528 104.659789,11.5033093 104.659789,5.87005333 L104.645343,5.31816083 C105.491727,4.72076683 106.223948,3.97019575 106.800042,3.11571825 L106.800042,3.11571825 Z" id="Shape"></path>
                        </g>
                    </g>
                </g>
            </g>
        </g>
    </g>
</svg>