<?xml version="1.0" encoding="UTF-8"?>
<svg width="30px" height="22px" viewBox="0 0 30 22" version="1.1" xmlns="http://www.w3.org/2000/svg" xmlns:xlink="http://www.w3.org/1999/xlink">
    <!-- Generator: Sketch 56.3 (81716) - https://sketch.com -->
    <title>Shape</title>
    <desc>Created with Sketch.</desc>
    <g id="menu" stroke="none" stroke-width="1" fill="none" fill-rule="evenodd">
        <g id="Artboard" transform="translate(-663.000000, -549.000000)" stroke="#FCFCFC" stroke-width="1.5">
            <g id="ICONS-SM-Copy" transform="translate(589.000000, 550.000000)">
                <path d="M101.595181,3.26084739 C100.726747,3.64164859 99.7949301,3.89990361 98.8158843,4.0152008 C99.8155566,3.42280522 100.580781,2.48318273 100.94346,1.36698996 C100.005745,1.91558635 98.9706795,2.31393775 97.8677976,2.52988153 C96.9846361,1.59754618 95.7284241,1.0168253 94.3350747,1.0168253 C91.6619566,1.0168253 89.4945542,3.1616506 89.4945542,5.8054739 C89.4945542,6.18043775 89.5373108,6.54666466 89.619894,6.89686747 C85.5976867,6.69694779 82.0310747,4.78996586 79.6439904,1.89223695 C79.2267181,2.59844177 78.9893398,3.42131727 78.9893398,4.29970482 C78.9893398,5.96159438 79.8445108,7.42795181 81.1420145,8.28585141 C80.3487614,8.25960241 79.6026988,8.04365863 78.9495518,7.68471888 L78.9495518,7.74454217 C78.9495518,10.0644498 80.6186024,12.0006185 82.8316916,12.4412811 C82.4262169,12.549253 81.9986506,12.6090763 81.5563181,12.6090763 C81.243759,12.6090763 80.941494,12.5784398 80.6451277,12.5200663 C81.2614169,14.4241486 83.0484434,15.8087831 85.1657253,15.846745 C83.5099373,17.1307329 81.4221494,17.8938233 79.154506,17.8938233 C78.7637976,17.8938233 78.3789494,17.8704739 78.0000386,17.8281627 C80.1423807,19.1894859 82.6857639,19.9832129 85.4193349,19.9832129 C94.3233542,19.9832129 99.1904386,12.6849618 99.1904386,6.35555823 L99.1742072,5.73546386 C100.125186,5.06424498 100.947894,4.22091968 101.595181,3.26084739 L101.595181,3.26084739 Z" id="Shape"></path>
            </g>
        </g>
    </g>
</svg>