<?xml version="1.0" encoding="UTF-8"?>
<svg width="53px" height="44px" viewBox="0 0 53 44" version="1.1" xmlns="http://www.w3.org/2000/svg" xmlns:xlink="http://www.w3.org/1999/xlink">
    <!-- Generator: Sketch 56.3 (81716) - https://sketch.com -->
    <title>Group 5</title>
    <desc>Created with Sketch.</desc>
    <g id="DEFINITIVAS-MAINBOARD" stroke="none" stroke-width="1" fill="none" fill-rule="evenodd">
        <g id="PAGE-MODEL-dsef-:hover-Copy-4" transform="translate(-1188.000000, -614.000000)" fill-rule="nonzero" stroke="#030303" stroke-width="2">
            <g id="Group-5" transform="translate(1189.000000, 615.000000)">
                <path d="M9.9475983e-14,23.7528462 L9.9475983e-14,1.88293825e-13 L12.4269858,1.88293825e-13 L12.4269858,23.8708239 C12.4269858,27.8427402 14.4326069,29.6124059 17.1854202,29.6124059 C19.9775594,29.6124059 21.9438546,27.9607179 21.9438546,24.0281275 L21.9438546,1.88293825e-13 L34.3315144,1.88293825e-13 L34.3315144,23.5168908 C34.3315144,35.6685952 27.3315035,40.5452394 17.0674425,40.5452394 C6.84270734,40.5843332 9.9475983e-14,35.6292693 9.9475983e-14,23.7528462" id="Path"></path>
                <path d="M50.4269858,35.2134929 C50.4269858,38.6348465 47.6348465,41.4269858 44.2134929,41.4269858 C40.7921392,41.4269858 38,38.6348465 38,35.2134929 C38,31.7921392 40.7921392,29 44.2134929,29 C47.6348465,29 50.4269858,31.7921392 50.4269858,35.2134929" id="Path"></path>
            </g>
        </g>
    </g>
</svg>