<?xml version="1.0" encoding="UTF-8"?>
<svg width="24px" height="21px" viewBox="0 0 24 21" version="1.1" xmlns="http://www.w3.org/2000/svg" xmlns:xlink="http://www.w3.org/1999/xlink">
    <!-- Generator: Sketch 56.3 (81716) - https://sketch.com -->
    <title>Vimeo</title>
    <desc>Created with Sketch.</desc>
    <g id="DEFINITIVAS-MAINBOARD" stroke="none" stroke-width="1" fill="none" fill-rule="evenodd">
        <g id="PAGE-MODEL-dsef-:hover-Copy-4" transform="translate(-707.000000, -635.000000)" stroke="#030303" stroke-width="2">
            <g id="Group-10" transform="translate(100.000000, 401.000000)">
                <g id="Group-12">
                    <g id="ICONS-SM-Copy-2" transform="translate(568.000000, 234.000000)">
                        <g id="ICONS-SM-Copy">
                            <path d="M58.6301988,1.14154895 C55.7107797,1.04674521 53.7351734,2.67663081 52.7006948,6.03305224 C53.2334601,5.81467808 53.7511876,5.70447057 54.2561234,5.70447057 C55.3206775,5.70447057 55.791876,6.29909551 55.6661059,7.49150391 C55.6037091,8.21358667 55.1333894,9.2642511 54.2561234,10.6431085 C53.3753908,12.0242497 52.717539,12.7136298 52.2805171,12.7136298 C51.7131357,12.7136298 51.1966776,11.6466383 50.7251373,9.51527933 C50.566997,8.88756298 50.2842096,7.28916525 49.8793138,4.71605297 C49.4997088,2.33279113 48.4966238,1.21924816 46.8655671,1.37576422 C46.1755892,1.43888572 45.1419893,2.06776829 43.7625217,3.25794144 C42.7561167,4.16778516 41.7364316,5.07787183 40.7,5.98703525 L41.6874614,7.25587947 C42.6299072,6.59686961 43.1812255,6.26891965 43.334337,6.26891965 C44.0570268,6.26891965 44.7319182,7.3971861 45.3599388,9.65342747 C45.9228772,11.7256009 46.4906003,13.794956 47.0562729,15.8641167 C47.8987764,18.1220102 48.9374051,19.2513943 50.159123,19.2513943 C52.1351687,19.2513943 54.5546321,17.4017253 57.4079438,13.7010269 C60.168295,10.1582051 61.593364,7.36691305 61.6894981,5.32656763 C61.8161959,2.59980626 60.7965108,1.20345564 58.6301988,1.14154895 L58.6301988,1.14154895 Z" id="Vimeo"></path>
                        </g>
                    </g>
                </g>
            </g>
        </g>
    </g>
</svg>