<?xml version="1.0" encoding="UTF-8"?>
<svg width="24px" height="21px" viewBox="0 0 24 21" version="1.1" xmlns="http://www.w3.org/2000/svg" xmlns:xlink="http://www.w3.org/1999/xlink">
    <!-- Generator: Sketch 56.3 (81716) - https://sketch.com -->
    <title>Vimeo</title>
    <desc>Created with Sketch.</desc>
    <g id="menu" stroke="none" stroke-width="1" fill="none" fill-rule="evenodd">
        <g id="Artboard" transform="translate(-625.000000, -550.000000)" stroke="#FCFCFC" stroke-width="1.5">
            <g id="ICONS-SM-Copy" transform="translate(589.000000, 550.000000)">
                <path d="M55.7455824,1.03830481 C52.6934014,0.93918984 50.6279536,2.64319519 49.5464316,6.15225134 C50.1034246,5.92394652 50.6446961,5.80872727 51.172594,5.80872727 C52.2855592,5.80872727 52.7781856,6.43039305 52.6466961,7.67702674 C52.5814617,8.43194652 52.0897541,9.53039037 51.172594,10.9719519 C50.2518097,12.4159011 49.5640418,13.136631 49.1071462,13.136631 C48.5139629,13.136631 47.9740186,12.0211176 47.4810348,9.79283422 C47.315703,9.13657219 47.0200557,7.46548663 46.5967471,4.77536096 C46.1998794,2.28371925 45.1511787,1.11953743 43.445949,1.28317112 C42.724594,1.3491631 41.6439907,2.00664439 40.2017912,3.25094118 C39.1496195,4.20216043 38.0835638,5.15363369 37,6.10414171 L38.0323666,7.43068717 C39.0176705,6.74170856 39.5940603,6.39884492 39.7541346,6.39884492 C40.5096891,6.39884492 41.2152715,7.57841979 41.8718515,9.93726471 C42.4603898,12.1036711 43.0539304,14.267131 43.6453271,16.4303877 C44.5261439,18.7909599 45.6120046,19.9717032 46.8892807,19.9717032 C48.9551879,19.9717032 51.4846775,18.0379198 54.4677448,14.1689305 C57.3536241,10.4649973 58.8434988,7.54677005 58.9440046,5.41363904 C59.076464,2.56287701 58.0104084,1.10302674 55.7455824,1.03830481 L55.7455824,1.03830481 Z" id="Vimeo"></path>
            </g>
        </g>
    </g>
</svg>